<?xml version="1.0" standalone="no"?>
<!DOCTYPE svg PUBLIC "-//W3C//DTD SVG 20010904//EN"
 "http://www.w3.org/TR/2001/REC-SVG-20010904/DTD/svg10.dtd">
<svg version="1.0" xmlns="http://www.w3.org/2000/svg"
 width="500.000000pt" height="500.000000pt" viewBox="0 0 500.000000 500.000000"
 preserveAspectRatio="xMidYMid meet">

<g transform="translate(0.000000,500.000000) scale(0.100000,-0.100000)"
fill="#000000" stroke="none">
<path d="M2293 4043 c9 -2 23 -2 30 0 6 3 -1 5 -18 5 -16 0 -22 -2 -12 -5z"/>
<path d="M2161 4025 c-35 -8 -69 -16 -75 -19 -25 -10 25 -4 104 13 47 11 74
19 60 19 -14 0 -54 -6 -89 -13z"/>
<path d="M2592 4017 c-8 -9 -49 -19 -110 -27 -410 -50 -927 -197 -1049 -297
-37 -29 -43 -40 -43 -72 0 -46 20 -66 180 -181 272 -196 361 -279 468 -438
106 -159 163 -301 207 -520 46 -227 51 -322 31 -647 -16 -278 -16 -290 1 -303
40 -29 46 2 92 449 58 574 108 944 186 1384 66 373 92 515 101 548 5 15 21 17
159 17 168 0 333 -18 525 -57 189 -38 200 -39 200 -14 0 11 -10 27 -22 35 -80
49 -395 103 -688 116 -96 4 -187 11 -201 15 -17 4 -29 2 -37 -8z m-32 -117 c0
-5 -14 -71 -30 -147 -66 -300 -140 -776 -187 -1195 -9 -87 -20 -154 -24 -150
-3 4 -14 48 -23 97 -23 121 -77 281 -132 390 -100 197 -236 349 -467 520 -228
169 -249 185 -245 198 13 44 358 155 728 236 282 60 380 74 380 51z"/>
<path d="M2048 3993 c7 -3 16 -2 19 1 4 3 -2 6 -13 5 -11 0 -14 -3 -6 -6z"/>
<path d="M3128 3800 c111 -59 207 -125 280 -194 l53 -50 -6 45 c-14 104 -13
102 -78 151 -34 25 -73 51 -87 57 -23 9 -210 41 -241 41 -8 0 28 -23 79 -50z"/>
<path d="M3526 3787 c-17 -12 -16 -25 9 -238 24 -200 27 -247 22 -439 -7 -274
-44 -527 -128 -865 -92 -368 -175 -571 -232 -563 -77 11 -140 384 -187 1108
-36 568 -64 710 -136 710 -47 0 -69 -42 -119 -235 -39 -149 -126 -570 -149
-725 -43 -287 -70 -695 -57 -868 6 -67 13 -126 16 -132 3 -5 15 -10 26 -10 18
0 19 9 19 213 0 390 51 806 156 1287 25 115 84 341 90 349 19 22 31 -87 54
-464 43 -722 122 -1169 226 -1272 83 -84 170 2 253 250 54 164 113 395 155
607 88 444 98 690 46 1075 -33 242 -31 236 -64 212z"/>
<path d="M1266 3452 c-182 -244 -282 -516 -293 -799 l-6 -143 47 0 46 0 0 93
c0 279 117 599 305 832 l32 40 -33 32 -33 33 -65 -88z"/>
<path d="M3684 3413 c2 -16 8 -59 11 -98 5 -52 17 -89 45 -145 46 -91 92 -228
114 -335 17 -85 38 -304 30 -317 -3 -5 15 -8 40 -8 l46 0 0 94 c0 181 -52 401
-138 587 -36 80 -138 249 -149 249 -2 0 -2 -12 1 -27z"/>
<path d="M992 2420 c-29 -4 -56 -10 -58 -13 -11 -10 8 -97 21 -97 9 0 12 11 8
39 l-5 39 71 7 c51 5 71 11 71 21 0 15 -23 16 -108 4z"/>
<path d="M3842 2419 c3 -8 25 -17 52 -21 27 -4 50 -9 53 -11 2 -3 -24 -20 -59
-39 -82 -43 -87 -63 -16 -72 29 -4 68 -9 86 -12 25 -5 32 -3 32 9 0 11 -15 17
-55 22 -30 4 -52 11 -49 16 3 5 32 23 65 39 91 46 82 58 -60 76 -44 6 -53 4
-49 -7z"/>
<path d="M1077 2091 c-38 -16 -68 -32 -68 -37 2 -20 33 -104 41 -109 17 -11
20 14 5 49 -20 46 -19 53 6 59 17 5 24 -1 37 -34 18 -48 37 -52 27 -6 -12 55
-11 62 11 65 16 2 23 -6 34 -38 7 -22 19 -40 27 -40 17 0 17 -2 -8 64 -12 31
-27 56 -33 55 -6 -1 -42 -13 -79 -28z"/>
<path d="M3730 2015 c-13 -31 -21 -57 -19 -59 4 -4 149 -66 154 -66 4 0 45 98
45 109 0 24 -18 9 -35 -29 -18 -40 -29 -47 -53 -31 -12 7 -11 14 2 39 18 36
20 52 6 52 -6 0 -18 -16 -27 -35 -17 -35 -28 -41 -50 -27 -9 6 -7 18 7 49 17
39 17 53 -1 53 -3 0 -17 -25 -29 -55z"/>
<path d="M1295 1821 c-3 -6 -1 -19 5 -30 14 -27 16 -24 -45 -65 -30 -20 -55
-43 -55 -51 0 -21 4 -20 71 27 l59 42 16 -23 c11 -15 20 -19 26 -13 7 7 -3 29
-30 67 -22 31 -43 51 -47 46z"/>
<path d="M3590 1753 c1 -10 7 -29 15 -43 24 -42 19 -48 -32 -40 -27 5 -51 6
-55 3 -20 -12 -3 -21 50 -28 31 -4 71 -16 89 -26 37 -23 58 -7 23 18 -12 8
-33 42 -47 74 -25 58 -43 76 -43 42z"/>
<path d="M1483 1521 c-51 -61 -59 -85 -39 -116 21 -33 57 -49 89 -41 32 8 103
94 89 108 -6 6 -22 -5 -48 -36 -43 -51 -85 -62 -104 -27 -15 29 -13 35 30 87
35 42 42 64 22 64 -4 0 -22 -18 -39 -39z"/>
<path d="M3347 1504 c-4 -4 9 -29 29 -55 40 -54 41 -84 6 -107 -22 -14 -25
-13 -71 36 -26 29 -50 52 -54 52 -17 0 -4 -29 34 -72 46 -55 79 -62 123 -27
38 30 34 68 -11 129 -37 50 -44 55 -56 44z"/>
<path d="M1810 1264 c-36 -31 -67 -58 -69 -60 -1 -1 0 -8 4 -14 5 -8 12 -7 25
5 16 15 21 15 58 0 31 -13 42 -23 44 -43 2 -14 9 -27 16 -30 10 -3 12 18 10
94 -2 54 -8 99 -13 101 -6 2 -39 -22 -75 -53z m66 0 c-3 -9 -6 -27 -6 -40 0
-22 -2 -24 -22 -13 -33 17 -33 17 -8 44 27 28 45 33 36 9z"/>
<path d="M2955 1265 c-31 -30 -33 -82 -4 -119 16 -20 29 -26 60 -26 46 0 89
24 89 50 0 29 -11 50 -26 50 -10 0 -11 -6 -4 -25 8 -20 5 -27 -13 -40 -27 -19
-47 -19 -75 1 -48 33 -17 114 45 114 12 0 25 5 28 10 4 6 -10 10 -35 10 -30 0
-47 -6 -65 -25z"/>
<path d="M2165 1197 c-7 -33 -25 -139 -25 -149 0 -4 6 -8 14 -8 10 0 17 17 21
55 4 30 10 55 14 55 4 0 21 -29 39 -65 42 -86 57 -84 72 8 6 39 13 77 15 84 2
6 -2 14 -10 17 -9 3 -16 -5 -19 -25 -20 -103 -14 -100 -53 -26 -38 72 -60 89
-68 54z"/>
<path d="M2674 1138 l6 -63 -54 58 c-31 31 -60 57 -66 57 -12 0 -13 -32 -4
-119 5 -44 11 -61 22 -61 12 0 13 11 8 63 l-7 62 53 -52 c79 -78 85 -74 72 56
-5 44 -11 61 -22 61 -12 0 -13 -11 -8 -62z"/>
</g>
</svg>
